<?xml version="1.0" encoding="utf-8"?>
<!-- Generator: Adobe Illustrator 22.1.0, SVG Export Plug-In . SVG Version: 6.00 Build 0)  -->
<svg version="1.1"
	 id="Слой_1" xmlns:cc="http://creativecommons.org/ns#" xmlns:dc="http://purl.org/dc/elements/1.1/" xmlns:rdf="http://www.w3.org/1999/02/22-rdf-syntax-ns#"
	 xmlns="http://www.w3.org/2000/svg" xmlns:xlink="http://www.w3.org/1999/xlink" x="0px" y="0px" viewBox="0 0 94.9 19.9" width="95" height="26.1" 
	 style="enable-background:new 0 0 94.9 19.9;" xml:space="preserve">
<style type="text/css">
	.st0{fill:#F7931A;}
	.st1{fill:#FFFFFF;}
	.st2{fill:#4D4D4D;}
</style>
<g transform="translate(-289.60744,-317.50471)">
	<path class="st0" d="M309.1,329.8c-1.3,5.3-6.7,8.5-12,7.2s-8.5-6.7-7.2-12s6.7-8.5,12-7.2S310.5,324.5,309.1,329.8L309.1,329.8z"
		/>
	<path class="st1" d="M303.9,326c0.2-1.3-0.8-2-2.2-2.5l0.4-1.8l-1.1-0.3l-0.4,1.7c-0.3-0.1-0.6-0.1-0.9-0.2l0.4-1.8l-1.1-0.3
		l-0.4,1.8c-0.2-0.1-0.5-0.1-0.7-0.2l0,0l-1.5-0.4l-0.3,1.2l0.8,0.2c0.4,0.1,0.5,0.4,0.5,0.6l-0.5,2h0.1h-0.1l-0.7,2.8
		c-0.1,0.1-0.2,0.3-0.5,0.2l-0.8-0.2l-0.5,1.2l1.4,0.3c0.3,0.1,0.5,0.1,0.8,0.2l-0.5,1.8l1.1,0.3l0.4-1.8c0.3,0.1,0.6,0.2,0.9,0.2
		l-0.4,1.8l1.1,0.3l0.5-1.8c1.9,0.3,3.3,0.2,3.8-1.5c0.5-1.4,0-2.1-1-2.6C303.2,327.4,303.8,326.9,303.9,326L303.9,326z
		 M301.4,329.4c-0.3,1.4-2.6,0.6-3.3,0.4l0.6-2.4C299.4,327.7,301.8,328,301.4,329.4L301.4,329.4z M301.8,325.9
		c-0.3,1.2-2.2,0.6-2.8,0.5l0.5-2.2C300.1,324.4,302.1,324.7,301.8,325.9z"/>
	<path class="st2" d="M318.7,323.5c0.8,0,1.5,0.2,2.1,0.4c0.6,0.3,1.1,0.7,1.5,1.1c0.4,0.5,0.7,1.1,0.9,1.7c0.2,0.7,0.3,1.4,0.3,2.1
		c0,1.1-0.2,2.3-0.7,3.3c-0.4,1-1,1.9-1.7,2.7c-0.7,0.8-1.6,1.4-2.6,1.8s-2.1,0.7-3.3,0.7c-0.2,0-0.4,0-0.8,0s-0.8,0-1.3-0.1
		s-1-0.2-1.5-0.3c-0.6-0.1-1.1-0.3-1.5-0.6l4.3-18.2l3.9-0.6l-1.5,6.5c0.3-0.2,0.7-0.3,1-0.3C317.9,323.5,318.3,323.5,318.7,323.5
		L318.7,323.5z M315.4,334.2c0.6,0,1.1-0.2,1.6-0.4c0.5-0.3,1-0.7,1.3-1.1c0.4-0.5,0.7-1,0.9-1.6c0.2-0.6,0.3-1.2,0.3-1.9
		c0-0.8-0.1-1.4-0.4-1.9s-0.8-0.7-1.5-0.7c-0.2,0-0.5,0-0.9,0.1s-0.7,0.2-1,0.5l-1.6,6.9c0.1,0,0.2,0,0.3,0.1c0.1,0,0.2,0,0.2,0
		c0.1,0,0.2,0,0.3,0S315.2,334.2,315.4,334.2L315.4,334.2z"/>
	<path class="st2" d="M327.4,336.9h-3.7l3.1-13.2h3.7L327.4,336.9z M329.2,322.1c-0.5,0-1-0.2-1.4-0.5s-0.6-0.8-0.6-1.4
		c0-0.3,0.1-0.7,0.2-1c0.2-0.3,0.3-0.6,0.6-0.8c0.2-0.2,0.5-0.4,0.8-0.5s0.7-0.2,1-0.2c0.5,0,1,0.2,1.4,0.5s0.6,0.8,0.6,1.4
		c0,0.3-0.1,0.7-0.2,1c-0.2,0.3-0.3,0.6-0.6,0.8c-0.2,0.2-0.5,0.4-0.8,0.5C329.9,322.1,329.5,322.1,329.2,322.1L329.2,322.1z"/>
	<path class="st2" d="M333.8,320.5l3.9-0.6l-1,3.9h4.1l-0.7,3.1H336l-1.1,4.6c-0.1,0.4-0.2,0.7-0.2,1.1c0,0.3,0,0.6,0.1,0.9
		s0.3,0.4,0.5,0.6c0.2,0.1,0.6,0.2,1.1,0.2c0.4,0,0.8,0,1.2-0.1c0.4-0.1,0.7-0.2,1.1-0.3l0.3,2.8c-0.5,0.2-1.1,0.3-1.6,0.5
		s-1.3,0.2-2.1,0.2c-1.1,0-2-0.2-2.7-0.5s-1.1-0.8-1.4-1.4s-0.4-1.3-0.3-2c0-0.8,0.2-1.6,0.3-2.4L333.8,320.5L333.8,320.5z"/>
	<path class="st2" d="M340.7,331.7c0-1.1,0.2-2.2,0.6-3.2s0.9-1.9,1.6-2.6s1.5-1.3,2.5-1.8c1-0.4,2.1-0.7,3.3-0.7
		c0.7,0,1.4,0.1,2,0.2s1.1,0.3,1.6,0.6l-1.3,2.9c-0.3-0.1-0.7-0.2-1.1-0.4c-0.4-0.1-0.8-0.2-1.3-0.2c-1.2,0-2.2,0.4-2.9,1.3
		c-0.7,0.9-1.1,2-1.1,3.4c0,0.9,0.2,1.5,0.6,2.1c0.4,0.5,1.1,0.8,2,0.8c0.5,0,1-0.1,1.4-0.2c0.5-0.1,0.9-0.2,1.2-0.4l0.3,3
		c-0.5,0.2-1,0.3-1.5,0.5c-0.6,0.1-1.2,0.2-2,0.2c-1,0-1.9-0.2-2.6-0.5s-1.3-0.7-1.8-1.2s-0.8-1.1-1-1.8
		C340.8,333.1,340.7,332.4,340.7,331.7L340.7,331.7z"/>
	<path class="st2" d="M357.2,337.3c-0.9,0-1.6-0.1-2.3-0.4c-0.7-0.3-1.2-0.7-1.6-1.1c-0.4-0.5-0.7-1.1-1-1.7s-0.3-1.4-0.3-2.2
		c0-1,0.2-2,0.5-3s0.8-1.9,1.5-2.7c0.6-0.8,1.4-1.5,2.3-2s2-0.8,3.2-0.8c0.9,0,1.6,0.1,2.3,0.4c0.7,0.3,1.2,0.7,1.6,1.1
		c0.4,0.5,0.7,1.1,1,1.7c0.2,0.7,0.3,1.4,0.3,2.2c0,1-0.2,2-0.5,3s-0.8,1.9-1.4,2.7s-1.4,1.5-2.3,2
		C359.5,337,358.4,337.3,357.2,337.3L357.2,337.3z M359.1,326.6c-0.6,0-1,0.2-1.5,0.5c-0.4,0.3-0.8,0.7-1.1,1.2s-0.5,1-0.7,1.6
		s-0.2,1.1-0.2,1.6c0,0.8,0.1,1.5,0.4,2s0.7,0.7,1.5,0.7c0.6,0,1-0.2,1.5-0.5c0.4-0.3,0.8-0.7,1.1-1.2s0.5-1,0.7-1.6
		s0.2-1.1,0.2-1.6c0-0.8-0.1-1.5-0.4-2C360.2,326.8,359.8,326.6,359.1,326.6L359.1,326.6z"/>
	<path class="st2" d="M368.7,336.9H365l3.2-13.2h3.7L368.7,336.9z M370.5,322.1c-0.5,0-1-0.2-1.4-0.5s-0.6-0.8-0.6-1.4
		c0-0.3,0.1-0.7,0.2-1c0.2-0.3,0.3-0.6,0.6-0.8c0.2-0.2,0.5-0.4,0.8-0.5s0.7-0.2,1-0.2c0.5,0,1,0.2,1.4,0.5s0.6,0.8,0.6,1.4
		c0,0.3-0.1,0.7-0.2,1c-0.2,0.3-0.3,0.6-0.6,0.8c-0.2,0.2-0.5,0.4-0.8,0.5C371.2,322.1,370.8,322.1,370.5,322.1z"/>
	<path class="st2" d="M374.5,324.3c0.3-0.1,0.6-0.2,0.9-0.3c0.3-0.1,0.7-0.2,1.1-0.3c0.4-0.1,0.9-0.2,1.4-0.2
		c0.5-0.1,1.1-0.1,1.8-0.1c2,0,3.3,0.6,4.1,1.7s0.9,2.7,0.4,4.7l-1.7,7.1h-3.7l1.6-7c0.1-0.4,0.2-0.9,0.2-1.3c0.1-0.4,0.1-0.8,0-1.1
		c-0.1-0.3-0.2-0.6-0.5-0.7c-0.2-0.2-0.6-0.3-1.1-0.3s-1,0.1-1.5,0.2l-2.4,10.2h-3.7L374.5,324.3z"/>
</g>
</svg>
