<?xml version="1.0" encoding="utf-8"?>
<!-- Generator: Adobe Illustrator 22.1.0, SVG Export Plug-In . SVG Version: 6.00 Build 0)  -->
<svg version="1.1" id="Layer_1" xmlns="http://www.w3.org/2000/svg" xmlns:xlink="http://www.w3.org/1999/xlink" x="0px" y="0px"
	 viewBox="0 0 578.8 133.8" height="20" style="enable-background:new 0 0 578.8 133.8;" xml:space="preserve">
<style type="text/css">
	.st0{fill:#000;}
</style>
<polygon class="st0" points="110.6,110.2 134.2,81 87.2,81 80.8,73 86.9,65.4 135.5,65.4 110.5,36.1 119.2,25.2 157.5,73 119.2,121 
	"/>
<polygon class="st0" points="0,65.8 68.8,65.8 110.2,13.5 41.4,13.5 "/>
<polygon class="st0" points="0,80.4 68.8,80.4 110.2,132.8 41.4,132.8 "/>
<path class="st0" d="M243,28.8c0,0.5,0.1,1,0,1.4c0,0.5,0,0.9-0.1,1.4l-3.8,47.5h-13.6l-1.6-5.4c-2.2,1.7-4.8,3.2-7.9,4.6
	c-3.1,1.4-6,2.1-8.8,2.1h-3.3c-1.1,0-2.4-0.2-4.1-0.6c-1.6-0.4-3.3-1.1-4.9-2.1c-1.6-1-3-2.5-4.2-4.4s-1.9-4.3-2.2-7.2
	c-0.1-0.7-0.1-1.4,0-2.1c0-0.8,0.1-1.7,0.2-2.9l0.3-3.8c0.1-1.5,0.4-3.2,0.8-5.2c0.4-2,1.3-3.8,2.7-5.6s3.4-3.2,6.1-4.5
	c2.7-1.2,6.4-1.8,11.1-1.8h14.8l0.3-3.1c0.1-0.4,0.1-0.8,0.1-1.2s0-0.7,0-0.9c-0.1-0.8-0.3-1.3-0.9-1.6c-0.5-0.3-1-0.4-1.5-0.4
	h-23.1l1.1-14.6h30.3c4.2,0,7.2,1,9.1,3S242.8,25.9,243,28.8L243,28.8z M208.4,52.3c-0.7,0-1.2,0.2-1.7,0.6c-0.5,0.4-0.8,1-0.9,1.8
	l-0.6,5.2c-0.1,0.8-0.1,1.6-0.1,2.3c0.1,0.8,0.4,1.6,1,2.5s1.7,1.3,3.4,1.3c2,0,4.2-0.3,6.7-0.9s4.7-1.3,6.6-2.3l0.7-10.4h-15.1
	V52.3z M309.9,33.8c0.1,1.8,0.1,3.5,0,5.3l-1.5,19.4c-0.5,6.3-2.4,11.3-5.8,15.1c-3.3,3.8-8.2,5.7-14.5,5.7h-20.9l-1.4,17h-17.9
	l6.2-77.9h14.6l1.7,4.5c1.4-0.6,3.1-1.2,5-1.9c1.9-0.7,3.9-1.3,6-1.9c2.1-0.5,4.2-1,6.3-1.4c2.1-0.4,4.1-0.6,6-0.6
	c2.4,0,4.5,0.4,6.5,1.3c1.9,0.9,3.6,2.1,5,3.6s2.5,3.3,3.3,5.3C309.2,29.3,309.7,31.5,309.9,33.8L309.9,33.8z M292.1,38.9
	c-0.1-1.4-0.5-2.6-1.3-3.5s-2.2-1.3-4.2-1.3c-0.7,0-1.7,0.1-3.1,0.3s-2.9,0.4-4.4,0.6c-1.5,0.3-3.1,0.5-4.6,0.8s-2.8,0.6-3.8,0.8
	l-2.2,26.8h19.4c1.6,0,2.4-0.8,2.5-2.4l1.5-19.2c0.1-0.4,0.1-0.9,0.1-1.5C292.1,39.7,292.1,39.2,292.1,38.9L292.1,38.9z M334.8,79.2
	h-18.4l4.9-60.9h18.4L334.8,79.2L334.8,79.2z M340.8,11.1h-19.4L322.3,0h19.4L340.8,11.1L340.8,11.1z M384.9,34.2h-2.3
	c-3,0-5.9,0.3-8.7,1c-2.8,0.7-5.2,1.3-7.1,2l-3.4,42h-18.5l4.9-60.9h15.1l1.6,5c1.3-0.7,2.7-1.4,4.4-2.1c1.6-0.7,3.3-1.4,5.1-2
	c1.8-0.6,3.5-1.2,5.3-1.6s3.5-0.6,5-0.6L384.9,34.2L384.9,34.2z M448.7,58.5c-0.4,6.1-2.3,11.1-5.6,15c-3.3,3.9-8.1,5.8-14.5,5.8
	h-24.5c-4.3,0-7.7-1.2-10.1-3.6s-3.8-5.7-4.2-10c-0.1-0.8-0.1-1.4,0-2.1c0-0.6,0.1-1.8,0.2-3.5l1.5-21c0.2-2.9,0.7-5.7,1.7-8.2
	c0.9-2.6,2.2-4.8,3.9-6.6c1.7-1.8,3.8-3.3,6.3-4.3c2.5-1,5.4-1.6,8.8-1.6h24.4c4.2,0,7.5,1.4,9.8,4.2s3.6,6.4,4,10.6
	c0,0.6,0.1,1.3,0.1,2c0,0.8,0,1.5-0.1,2.1L448.7,58.5L448.7,58.5z M432.7,38.1c-0.1-1.2-0.5-2.1-1.4-2.7c-0.8-0.6-1.8-0.9-3-0.9
	h-16.6c-1.5,0-2.3,0.8-2.4,2.4l-1.4,19c-0.1,0.4-0.1,0.9-0.1,1.4s0,1,0,1.3c0.1,1.1,0.5,2,1.2,2.6c0.7,0.7,1.8,1,3.2,1h16.4
	c1.6,0,2.4-0.8,2.5-2.4l1.5-19.7c0.1-0.4,0.1-0.8,0.1-1.2C432.7,38.5,432.7,38.3,432.7,38.1L432.7,38.1z M517.5,32.2
	c0.1,1,0.1,2.1,0.1,3.2c0,1.1-0.1,2.4-0.1,3.7l-3.1,40.1h-18l2.8-36.2c0.1-1.5,0.2-2.7,0.1-3.5c-0.3-3.6-2-5.4-5.2-5.4
	c-2.1,0-4.6,0.3-7.6,0.8s-5.7,1.1-8,1.7l-3.6,42.6H457l4.9-60.9h14.6l1.7,4.5c1.8-0.8,3.7-1.5,5.7-2.2s4.1-1.3,6.2-1.8
	s4.1-0.9,6-1.3c2-0.3,3.7-0.5,5.3-0.5c1.6,0,3.2,0.1,5,0.4s3.5,0.9,5.1,1.9s3,2.5,4.1,4.5C516.6,25.9,517.3,28.7,517.5,32.2
	L517.5,32.2z M578.7,32.3c0.1,0.7,0.1,1.4,0,2.1c0,0.7-0.1,1.3-0.1,1.8l-0.5,4.9c-0.4,3.5-1.9,6.4-4.7,8.5
	c-2.7,2.1-6.1,3.6-10.1,4.3c-1.1,0.3-2.6,0.5-4.5,0.6c-1.9,0.2-3.8,0.3-5.9,0.4c-2.1,0.1-4,0.2-5.7,0.3c-1.8,0.1-3.1,0.1-3.9,0.1
	l-0.2,2.6c0,0.5-0.1,0.9,0,1.3l0.1,0.8c0.1,1.2,0.5,2.2,1.3,3.1c0.8,0.9,2.2,1.4,4.2,1.4c2.1,0,4.4-0.1,7-0.3
	c2.6-0.2,5.2-0.5,7.9-0.8s5.2-0.6,7.6-1.1c2.4-0.4,4.6-0.9,6.4-1.4l-1.1,13.5c-1.8,0.8-3.9,1.5-6.3,2.2c-2.5,0.7-5.1,1.3-7.8,1.9
	c-2.8,0.5-5.5,1-8.3,1.3s-5.3,0.5-7.6,0.5c-1.6,0-3.6-0.1-6-0.4c-2.3-0.3-4.6-0.9-6.8-2.1c-2.2-1.1-4.1-2.8-5.7-5
	c-1.6-2.2-2.6-5.2-2.9-9.2c-0.1-0.8-0.1-1.7-0.1-2.6c0-0.9,0.1-1.8,0.2-2.8l1.5-19.4c0.2-2.8,0.7-5.4,1.6-7.9
	c0.9-2.5,2.2-4.7,3.9-6.6c1.7-1.9,3.8-3.5,6.4-4.6c2.6-1.1,5.6-1.7,9.3-1.7h12.9c3.7,0,6.7,0.5,9,1.5s4,2.2,5.3,3.6s2.2,2.9,2.7,4.5
	C578.3,29.6,578.6,31.1,578.7,32.3L578.7,32.3z M550.3,33c-1.1,0-2.2,0.4-3.4,1.1c-1.2,0.7-1.9,2-2.1,3.8l-0.7,6.7
	c0.5,0,1.4,0,2.8-0.1c1.4,0,2.9-0.1,4.5-0.3c1.6-0.1,3.1-0.3,4.5-0.4c1.4-0.1,2.5-0.3,3.1-0.4c1.7-0.4,2.8-0.9,3.3-1.5
	s0.9-1.2,1.1-1.8c0.1-0.3,0.2-0.8,0.3-1.5s0.1-1.2,0.1-1.6c-0.1-1.2-0.5-2.1-1.3-2.9c-0.8-0.8-1.8-1.1-3.2-1.1H550.3z"/>
<g>
	<path class="st0" d="M197.1,128.3c-1.2,0-2.5-0.1-3.8-0.2c-1.3-0.1-2.5-0.3-3.6-0.5l1.7-20.6c1.1-0.2,2.3-0.4,3.6-0.5
		s2.4-0.1,3.5-0.1c1.2,0,2.3,0.1,3.2,0.4s1.7,0.6,2.3,1s1.1,0.9,1.5,1.5s0.6,1.2,0.7,1.9c0.1,0.5,0.1,0.9,0.1,1.4s-0.1,1-0.3,1.5
		s-0.5,0.9-0.9,1.4c-0.4,0.4-1,0.8-1.7,1.2c1,0.4,1.7,1,2.3,1.7c0.5,0.7,0.9,1.5,1,2.4c0.2,1,0.1,1.9-0.1,2.8
		c-0.2,0.9-0.7,1.7-1.5,2.4c-0.7,0.7-1.8,1.3-3.1,1.7S199.1,128.3,197.1,128.3L197.1,128.3z M195.2,118.7l-0.5,5.5
		c0.3,0.1,0.8,0.1,1.3,0.1s1,0,1.4,0c0.6,0,1.2,0,1.8-0.1s1.1-0.3,1.5-0.5s0.8-0.6,1-1s0.3-1,0.2-1.7c0-0.3-0.1-0.6-0.3-0.9
		s-0.4-0.5-0.7-0.8c-0.3-0.2-0.6-0.4-1.1-0.6c-0.4-0.1-0.9-0.2-1.5-0.2h-3.1V118.7z M195.5,115.1h3c1.2,0,2.1-0.3,2.6-0.8
		s0.7-1.2,0.6-1.9c-0.1-0.4-0.2-0.7-0.4-1s-0.5-0.5-0.8-0.7s-0.7-0.3-1-0.4c-0.4-0.1-0.8-0.1-1.2-0.1s-0.9,0-1.4,0s-0.9,0.1-1.1,0.1
		L195.5,115.1L195.5,115.1z M214.4,128h-4.5l1.3-16.2h4.6L214.4,128L214.4,128z M213.8,109.9c-0.6,0-1.2-0.2-1.8-0.6s-0.9-1-1-1.7
		c-0.1-0.4,0-0.8,0.1-1.2c0.1-0.4,0.3-0.7,0.5-1s0.5-0.5,0.9-0.7s0.7-0.2,1.2-0.2c0.6,0,1.2,0.2,1.8,0.6s0.9,1,1,1.7
		c0.1,0.4,0,0.8-0.1,1.2c-0.1,0.4-0.3,0.7-0.5,1s-0.5,0.5-0.9,0.7C214.6,109.8,214.2,109.9,213.8,109.9L213.8,109.9z M219.8,107.8
		l4.6-0.7l-0.4,4.8h5.1l-0.3,3.7h-5.1l-0.5,5.7c0,0.5-0.1,0.9,0,1.3c0,0.4,0.1,0.8,0.3,1.1c0.2,0.3,0.4,0.5,0.8,0.7
		c0.4,0.2,0.8,0.2,1.4,0.2c0.5,0,1,0,1.4-0.1s0.9-0.2,1.3-0.4l0.9,3.5c-0.6,0.2-1.2,0.4-1.9,0.6s-1.5,0.2-2.5,0.2
		c-1.4,0-2.5-0.2-3.4-0.6c-0.8-0.4-1.5-1-1.9-1.7s-0.7-1.6-0.8-2.5s-0.1-1.9,0-3L219.8,107.8L219.8,107.8z M230.8,121.6
		c-0.2-1.4-0.2-2.7,0.1-3.9c0.3-1.2,0.7-2.3,1.4-3.2c0.7-0.9,1.6-1.6,2.7-2.2c1.1-0.5,2.4-0.8,3.9-0.8c0.9,0,1.8,0.1,2.5,0.3
		c0.8,0.2,1.5,0.4,2.1,0.7l-1,3.6c-0.4-0.2-0.9-0.3-1.3-0.4c-0.5-0.1-1-0.2-1.6-0.2c-1.5,0-2.7,0.5-3.4,1.6c-0.7,1-0.9,2.4-0.7,4.2
		c0.2,1,0.5,1.9,1.1,2.5s1.4,1,2.6,1c0.6,0,1.2-0.1,1.7-0.2s1-0.3,1.4-0.5l0.9,3.7c-0.5,0.2-1.1,0.4-1.8,0.6s-1.5,0.3-2.5,0.3
		c-1.3,0-2.4-0.2-3.3-0.6c-0.9-0.4-1.7-0.9-2.4-1.5s-1.2-1.4-1.6-2.2C231.2,123.4,230.9,122.5,230.8,121.6L230.8,121.6z
		 M252.3,128.4c-1.1,0-2.1-0.2-2.9-0.5c-0.9-0.3-1.6-0.8-2.2-1.4c-0.6-0.6-1.1-1.3-1.5-2.1c-0.4-0.8-0.7-1.7-0.8-2.7
		c-0.2-1.2-0.2-2.5,0-3.7s0.6-2.3,1.2-3.3c0.6-1,1.5-1.8,2.5-2.4s2.3-0.9,3.7-0.9c1.1,0,2,0.2,2.9,0.5c0.9,0.3,1.6,0.8,2.2,1.4
		s1.1,1.3,1.5,2.1c0.4,0.8,0.7,1.7,0.8,2.7c0.2,1.2,0.2,2.5,0,3.7s-0.6,2.3-1.2,3.3s-1.4,1.8-2.5,2.4
		C255,128.1,253.8,128.4,252.3,128.4L252.3,128.4z M252.5,115.3c-0.7,0-1.2,0.2-1.7,0.6s-0.8,0.9-1.1,1.5s-0.4,1.2-0.5,2
		c-0.1,0.7,0,1.4,0.1,2c0.2,1,0.5,1.8,0.9,2.4s1.1,0.8,1.9,0.8c0.7,0,1.2-0.2,1.7-0.6s0.8-0.9,1.1-1.5s0.4-1.2,0.5-2
		c0.1-0.7,0-1.4-0.1-2c-0.2-1-0.5-1.8-0.9-2.4C254,115.6,253.3,115.3,252.5,115.3L252.5,115.3z M267.1,128h-4.5l1.3-16.2h4.6
		L267.1,128L267.1,128z M266.4,109.9c-0.6,0-1.2-0.2-1.8-0.6c-0.6-0.4-0.9-1-1-1.7c-0.1-0.4,0-0.8,0.1-1.2c0.1-0.4,0.3-0.7,0.5-1
		s0.5-0.5,0.9-0.7s0.7-0.2,1.2-0.2c0.6,0,1.2,0.2,1.8,0.6c0.6,0.4,0.9,1,1,1.7c0.1,0.4,0,0.8-0.1,1.2c-0.1,0.4-0.3,0.7-0.5,1
		s-0.5,0.5-0.9,0.7C267.3,109.8,266.9,109.9,266.4,109.9L266.4,109.9z M272.5,112.6c0.3-0.1,0.7-0.2,1.1-0.4
		c0.4-0.1,0.9-0.3,1.4-0.4s1.1-0.2,1.7-0.3c0.6-0.1,1.4-0.1,2.2-0.1c2.4,0,4.2,0.7,5.3,2.1c1.1,1.4,1.6,3.3,1.4,5.7l-0.7,8.7h-4.6
		l0.7-8.5c0-0.5,0.1-1.1,0-1.6c0-0.5-0.1-0.9-0.2-1.3s-0.4-0.7-0.7-0.9c-0.3-0.2-0.8-0.4-1.4-0.4s-1.2,0.1-1.8,0.2l-1,12.5h-4.6
		L272.5,112.6L272.5,112.6z M326.1,115.8c-0.4-0.1-0.8-0.2-1.3-0.3c-0.4-0.1-1-0.1-1.8-0.1c-0.3,0-0.6,0-0.9,0.1s-0.6,0.1-0.8,0.2
		l-1,12.4h-4.6l1.3-15.3c0.8-0.3,1.8-0.6,2.8-0.8c1.1-0.3,2.3-0.4,3.6-0.4c0.5,0,1.1,0,1.7,0.1s1.2,0.2,1.7,0.4L326.1,115.8
		L326.1,115.8z M335.5,128.4c-1.1,0-2.1-0.2-2.9-0.5c-0.9-0.3-1.6-0.8-2.2-1.4s-1.1-1.3-1.5-2.1c-0.4-0.8-0.7-1.7-0.8-2.7
		c-0.2-1.2-0.2-2.5,0-3.7s0.6-2.3,1.2-3.3s1.5-1.8,2.5-2.4s2.3-0.9,3.7-0.9c1.1,0,2,0.2,2.9,0.5s1.6,0.8,2.2,1.4s1.1,1.3,1.5,2.1
		c0.4,0.8,0.7,1.7,0.8,2.7c0.2,1.2,0.2,2.5,0,3.7s-0.6,2.3-1.2,3.3s-1.4,1.8-2.5,2.4C338.3,128.1,337,128.4,335.5,128.4L335.5,128.4
		z M335.7,115.3c-0.7,0-1.2,0.2-1.7,0.6s-0.8,0.9-1.1,1.5c-0.3,0.6-0.4,1.2-0.5,2c-0.1,0.7,0,1.4,0.1,2c0.2,1,0.5,1.8,0.9,2.4
		s1.1,0.8,1.9,0.8c0.7,0,1.2-0.2,1.7-0.6s0.8-0.9,1.1-1.5c0.3-0.6,0.4-1.2,0.5-2c0.1-0.7,0-1.4-0.1-2c-0.2-1-0.5-1.8-0.9-2.4
		C337.2,115.6,336.6,115.3,335.7,115.3L335.7,115.3z M345.7,121.6c-0.2-1.4-0.2-2.7,0.1-3.9c0.3-1.2,0.7-2.3,1.4-3.2
		c0.7-0.9,1.6-1.6,2.7-2.2c1.1-0.5,2.4-0.8,3.9-0.8c0.9,0,1.8,0.1,2.5,0.3c0.8,0.2,1.5,0.4,2.1,0.7l-1,3.6c-0.4-0.2-0.9-0.3-1.3-0.4
		c-0.5-0.1-1-0.2-1.6-0.2c-1.5,0-2.7,0.5-3.4,1.6c-0.7,1-0.9,2.4-0.7,4.2c0.2,1,0.5,1.9,1.1,2.5s1.4,1,2.6,1c0.6,0,1.2-0.1,1.7-0.2
		s1-0.3,1.4-0.5l0.9,3.7c-0.5,0.2-1.1,0.4-1.8,0.6c-0.7,0.2-1.5,0.3-2.5,0.3c-1.3,0-2.4-0.2-3.3-0.6c-0.9-0.4-1.7-0.9-2.4-1.5
		c-0.7-0.6-1.2-1.4-1.6-2.2C346.1,123.4,345.8,122.5,345.7,121.6L345.7,121.6z M359.7,121.7c-0.2-1.3-0.2-2.6,0.1-3.8
		c0.3-1.2,0.7-2.3,1.4-3.3c0.7-1,1.6-1.7,2.7-2.3c1.1-0.6,2.4-0.9,3.8-0.9c0.7,0,1.4,0.1,2,0.3c0.6,0.2,1.2,0.5,1.8,0.9
		c0.5,0.4,1,0.9,1.3,1.4c0.3,0.6,0.6,1.2,0.7,1.9c0.2,1.1,0.1,2.1-0.3,2.9s-1,1.4-1.8,2c-0.8,0.5-1.9,0.9-3.1,1.1s-2.6,0.3-4,0.3
		c0.3,0.9,0.7,1.5,1.2,1.8c0.5,0.4,1.3,0.5,2.4,0.5c0.7,0,1.3-0.1,2-0.2s1.3-0.3,1.8-0.5l0.9,3.6c-0.5,0.2-1.2,0.4-2.1,0.6
		s-1.8,0.3-2.9,0.3c-1.3,0-2.4-0.2-3.3-0.5c-0.9-0.4-1.7-0.8-2.3-1.5c-0.6-0.6-1.1-1.3-1.5-2.2C360.1,123.5,359.8,122.6,359.7,121.7
		L359.7,121.7z M367.6,115c-1,0-1.9,0.4-2.6,1.1s-1,1.7-1.1,3c1.3,0,2.3-0.1,3-0.3c0.8-0.2,1.3-0.4,1.7-0.6c0.4-0.2,0.6-0.5,0.7-0.8
		s0.1-0.6,0.1-0.9C369.3,115.5,368.7,115,367.6,115L367.6,115z M380.8,124.8c1,0,1.7-0.1,2.1-0.4c0.3-0.3,0.5-0.6,0.4-1
		c0-0.2-0.1-0.4-0.2-0.6s-0.2-0.3-0.4-0.5c-0.2-0.1-0.4-0.3-0.7-0.4c-0.3-0.2-0.7-0.3-1.2-0.5s-1.1-0.5-1.6-0.7
		c-0.5-0.3-0.9-0.6-1.3-0.9c-0.4-0.4-0.7-0.8-1-1.2c-0.3-0.5-0.4-1-0.5-1.6c-0.3-1.7,0.1-3,1.2-3.9c1.1-1,2.8-1.4,5.1-1.4
		c1.1,0,2.1,0.1,3,0.4c0.9,0.2,1.6,0.5,2.2,0.8l-1,3.4c-0.5-0.2-1.1-0.4-1.8-0.6c-0.7-0.2-1.4-0.3-2-0.3c-0.3,0-0.6,0-0.8,0
		c-0.3,0-0.5,0.1-0.7,0.2s-0.4,0.2-0.5,0.4c-0.1,0.2-0.1,0.4-0.1,0.7c0.1,0.4,0.3,0.7,0.6,0.9c0.3,0.2,0.8,0.5,1.5,0.7
		c0.9,0.4,1.6,0.7,2.2,1.1c0.6,0.3,1.1,0.7,1.4,1c0.4,0.4,0.7,0.8,0.9,1.3c0.2,0.5,0.4,1,0.5,1.7s0.1,1.3-0.1,1.9s-0.5,1.2-1,1.7
		s-1.2,0.9-2.1,1.2c-0.9,0.3-2,0.5-3.2,0.5c-0.8,0-1.5-0.1-2.2-0.2c-0.7-0.1-1.3-0.2-1.8-0.4s-1-0.3-1.3-0.5
		c-0.4-0.2-0.6-0.3-0.8-0.4l1-3.5c0.4,0.2,1,0.5,1.7,0.8C378.8,124.6,379.8,124.8,380.8,124.8L380.8,124.8z M395.6,124.8
		c1,0,1.7-0.1,2.1-0.4c0.3-0.3,0.5-0.6,0.4-1c0-0.2-0.1-0.4-0.2-0.6s-0.2-0.3-0.4-0.5c-0.2-0.1-0.4-0.3-0.7-0.4
		c-0.3-0.2-0.7-0.3-1.2-0.5s-1.1-0.5-1.6-0.7c-0.5-0.3-0.9-0.6-1.3-0.9c-0.4-0.4-0.7-0.8-1-1.2c-0.3-0.5-0.4-1-0.5-1.6
		c-0.3-1.7,0.1-3,1.2-3.9c1.1-1,2.8-1.4,5.1-1.4c1.1,0,2.1,0.1,3,0.4c0.9,0.2,1.6,0.5,2.2,0.8l-1,3.4c-0.5-0.2-1.1-0.4-1.8-0.6
		c-0.7-0.2-1.4-0.3-2-0.3c-0.3,0-0.6,0-0.8,0c-0.3,0-0.5,0.1-0.7,0.2s-0.4,0.2-0.5,0.4c-0.1,0.2-0.1,0.4-0.1,0.7
		c0.1,0.4,0.3,0.7,0.6,0.9c0.3,0.2,0.8,0.5,1.5,0.7c0.9,0.4,1.6,0.7,2.2,1.1c0.6,0.3,1.1,0.7,1.4,1c0.4,0.4,0.7,0.8,0.9,1.3
		c0.2,0.5,0.4,1,0.5,1.7s0.1,1.3-0.1,1.9s-0.5,1.2-1,1.7s-1.2,0.9-2.1,1.2c-0.9,0.3-2,0.5-3.2,0.5c-0.8,0-1.5-0.1-2.2-0.2
		c-0.7-0.1-1.3-0.2-1.8-0.4s-1-0.3-1.3-0.5c-0.4-0.2-0.6-0.3-0.8-0.4l1-3.5c0.4,0.2,1,0.5,1.7,0.8
		C393.7,124.6,394.6,124.8,395.6,124.8L395.6,124.8z M410.3,128h-4.5l1.3-16.2h4.6L410.3,128L410.3,128z M409.7,109.9
		c-0.6,0-1.2-0.2-1.8-0.6c-0.6-0.4-0.9-1-1-1.7c-0.1-0.4,0-0.8,0.1-1.2c0.1-0.4,0.3-0.7,0.5-1s0.5-0.5,0.9-0.7s0.7-0.2,1.2-0.2
		c0.6,0,1.2,0.2,1.8,0.6c0.6,0.4,0.9,1,1,1.7c0.1,0.4,0,0.8-0.1,1.2c-0.1,0.4-0.3,0.7-0.5,1s-0.5,0.5-0.9,0.7
		C410.5,109.8,410.1,109.9,409.7,109.9L409.7,109.9z M415.7,112.6c0.3-0.1,0.7-0.2,1.1-0.4c0.4-0.1,0.9-0.3,1.4-0.4s1.1-0.2,1.7-0.3
		c0.6-0.1,1.4-0.1,2.2-0.1c2.4,0,4.2,0.7,5.3,2.1c1.1,1.4,1.6,3.3,1.4,5.7L428,128h-4.6l0.7-8.5c0-0.5,0.1-1.1,0-1.6
		c0-0.5-0.1-0.9-0.2-1.3s-0.4-0.7-0.7-0.9c-0.3-0.2-0.8-0.4-1.4-0.4s-1.2,0.1-1.8,0.2l-1,12.5h-4.6L415.7,112.6L415.7,112.6z
		 M445.5,126c-0.1,1.3-0.3,2.5-0.7,3.5c-0.3,1-0.8,1.8-1.5,2.4c-0.6,0.6-1.5,1.1-2.5,1.4c-1,0.3-2.2,0.5-3.6,0.5
		c-1.3,0-2.4-0.1-3.3-0.4c-0.9-0.2-1.8-0.5-2.5-0.9l1-3.6c0.7,0.3,1.4,0.5,2.1,0.7s1.6,0.3,2.6,0.3c1.3,0,2.3-0.3,2.8-0.9
		c0.6-0.6,0.9-1.3,1-2.3v-0.6c-0.4,0.2-0.8,0.4-1.2,0.5c-0.4,0.1-0.9,0.2-1.4,0.2c-1,0-1.8-0.1-2.6-0.4c-0.7-0.3-1.4-0.7-1.9-1.2
		s-1-1.2-1.3-1.9c-0.3-0.7-0.6-1.5-0.7-2.4c-0.2-1.6-0.2-2.9,0.2-4.1c0.4-1.2,1-2.2,1.8-3s1.8-1.4,3-1.8s2.4-0.6,3.8-0.6
		c1,0,2,0.1,3,0.3c1,0.2,2,0.5,3,1L445.5,126L445.5,126z M441.8,115.4c-0.4-0.1-0.8-0.1-1.3-0.1c-0.8,0-1.5,0.1-2,0.4
		c-0.6,0.3-1,0.7-1.4,1.1c-0.4,0.5-0.6,1-0.7,1.7s-0.1,1.4,0,2.1c0.1,0.4,0.1,0.7,0.3,1c0.1,0.3,0.3,0.6,0.5,0.8
		c0.2,0.2,0.5,0.4,0.8,0.6c0.3,0.1,0.7,0.2,1.1,0.2c0.3,0,0.7-0.1,1.1-0.2c0.5-0.1,0.9-0.3,1.2-0.7L441.8,115.4L441.8,115.4z
		 M486.7,115.8c-0.4-0.1-0.8-0.2-1.3-0.3c-0.4-0.1-1-0.1-1.8-0.1c-0.3,0-0.6,0-0.9,0.1s-0.6,0.1-0.8,0.2l-1,12.4h-4.6l1.3-15.3
		c0.8-0.3,1.8-0.6,2.8-0.8c1.1-0.3,2.3-0.4,3.6-0.4c0.5,0,1.1,0,1.7,0.1s1.2,0.2,1.7,0.4L486.7,115.8L486.7,115.8z M496.2,128.4
		c-1.1,0-2.1-0.2-2.9-0.5c-0.9-0.3-1.6-0.8-2.2-1.4s-1.1-1.3-1.5-2.1c-0.4-0.8-0.7-1.7-0.8-2.7c-0.2-1.2-0.2-2.5,0-3.7
		s0.6-2.3,1.2-3.3s1.5-1.8,2.5-2.4s2.3-0.9,3.7-0.9c1.1,0,2,0.2,2.9,0.5s1.6,0.8,2.2,1.4s1.1,1.3,1.5,2.1c0.4,0.8,0.7,1.7,0.8,2.7
		c0.2,1.2,0.2,2.5,0,3.7s-0.6,2.3-1.2,3.3s-1.4,1.8-2.5,2.4C498.9,128.1,497.7,128.4,496.2,128.4L496.2,128.4z M496.4,115.3
		c-0.7,0-1.2,0.2-1.7,0.6s-0.8,0.9-1.1,1.5c-0.3,0.6-0.4,1.2-0.5,2c-0.1,0.7,0,1.4,0.1,2c0.2,1,0.5,1.8,0.9,2.4s1.1,0.8,1.9,0.8
		c0.7,0,1.2-0.2,1.7-0.6s0.8-0.9,1.1-1.5c0.3-0.6,0.4-1.2,0.5-2c0.1-0.7,0-1.4-0.1-2c-0.2-1-0.5-1.8-0.9-2.4
		C497.9,115.6,497.2,115.3,496.4,115.3L496.4,115.3z M510.1,128c-0.9-2-1.7-4.4-2.6-7.2c-0.9-2.7-1.6-5.7-2.3-9h4.7
		c0.1,0.8,0.3,1.7,0.5,2.6c0.2,1,0.4,1.9,0.6,2.9s0.4,1.9,0.7,2.8c0.2,0.9,0.4,1.7,0.7,2.5c0.4-0.6,0.7-1.4,1.2-2.3
		c0.4-0.9,0.8-1.8,1.2-2.8s0.7-2,1-3s0.5-1.9,0.6-2.7h4.9c-0.3,1.5-0.7,3-1.3,4.5c-0.5,1.5-1.2,3-1.8,4.5c-0.7,1.4-1.4,2.8-2.1,4
		c-0.7,1.2-1.4,2.3-2.1,3.2H510.1L510.1,128z M527.5,128H523l1.3-16.2h4.6L527.5,128L527.5,128z M526.8,109.9
		c-0.6,0-1.2-0.2-1.8-0.6s-0.9-1-1-1.7c-0.1-0.4,0-0.8,0.1-1.2c0.1-0.4,0.3-0.7,0.5-1s0.5-0.5,0.9-0.7s0.7-0.2,1.2-0.2
		c0.6,0,1.2,0.2,1.8,0.6s0.9,1,1,1.7c0.1,0.4,0,0.8-0.1,1.2c-0.1,0.4-0.3,0.7-0.5,1s-0.5,0.5-0.9,0.7
		C527.6,109.8,527.3,109.9,526.8,109.9L526.8,109.9z M538.3,128.4c-1,0-1.9-0.2-2.7-0.5s-1.5-0.8-2-1.4c-0.6-0.6-1-1.3-1.3-2.1
		c-0.3-0.8-0.6-1.7-0.7-2.6c-0.2-1.4-0.2-2.7,0.1-3.9c0.3-1.2,0.8-2.3,1.6-3.2c0.7-0.9,1.7-1.6,2.8-2.2c1.1-0.5,2.4-0.8,3.8-0.8
		c0.4,0,0.7,0,1,0.1c0.3,0,0.7,0.1,1,0.2l0.6-6.9l4.6-0.7l-1.4,16.9c-0.1,1.2,0,2.3,0.3,3.5s0.7,2.2,1.2,3.2l-4,0.6
		c-0.2-0.2-0.3-0.5-0.4-0.7c-0.1-0.2-0.3-0.5-0.4-0.8c-0.5,0.5-1.1,0.9-1.7,1.2C540,128.3,539.2,128.4,538.3,128.4L538.3,128.4z
		 M541.6,115.5c-0.1,0-0.2,0-0.3-0.1c-0.1,0-0.2,0-0.3,0s-0.2,0-0.4,0c-0.1,0-0.3,0-0.6,0c-0.7,0-1.4,0.2-1.9,0.5
		c-0.6,0.3-1,0.8-1.4,1.4s-0.6,1.2-0.7,2c-0.1,0.7-0.1,1.5,0,2.2c0.2,1,0.4,1.8,0.9,2.3c0.4,0.6,1.1,0.8,2,0.8
		c0.5,0,0.9-0.1,1.2-0.3c0.4-0.2,0.7-0.5,1.1-0.9c0-0.5-0.1-1.1-0.1-1.6c0-0.6,0-1.1,0-1.6L541.6,115.5L541.6,115.5z M549.7,121.7
		c-0.2-1.3-0.2-2.6,0.1-3.8c0.3-1.2,0.7-2.3,1.4-3.3s1.6-1.7,2.7-2.3c1.1-0.6,2.4-0.9,3.8-0.9c0.7,0,1.4,0.1,2,0.3
		c0.6,0.2,1.2,0.5,1.8,0.9c0.5,0.4,1,0.9,1.3,1.4c0.3,0.6,0.6,1.2,0.7,1.9c0.2,1.1,0.1,2.1-0.3,2.9c-0.4,0.8-1,1.4-1.8,2
		c-0.8,0.5-1.9,0.9-3.1,1.1c-1.2,0.2-2.6,0.3-4,0.3c0.3,0.9,0.7,1.5,1.2,1.8c0.5,0.4,1.3,0.5,2.4,0.5c0.7,0,1.3-0.1,2-0.2
		s1.3-0.3,1.8-0.5l0.9,3.6c-0.5,0.2-1.2,0.4-2.1,0.6c-0.9,0.2-1.8,0.3-2.9,0.3c-1.3,0-2.4-0.2-3.3-0.5c-0.9-0.4-1.7-0.8-2.3-1.5
		c-0.6-0.6-1.1-1.3-1.5-2.2C550.1,123.5,549.8,122.6,549.7,121.7L549.7,121.7z M557.6,115c-1,0-1.9,0.4-2.6,1.1
		c-0.7,0.7-1,1.7-1.1,3c1.3,0,2.3-0.1,3-0.3c0.8-0.2,1.3-0.4,1.7-0.6s0.6-0.5,0.7-0.8c0.1-0.3,0.1-0.6,0.1-0.9
		C559.3,115.5,558.7,115,557.6,115L557.6,115z M576.5,115.8c-0.4-0.1-0.8-0.2-1.3-0.3c-0.4-0.1-1-0.1-1.8-0.1c-0.3,0-0.6,0-0.9,0.1
		c-0.3,0.1-0.6,0.1-0.8,0.2l-1,12.4H566l1.3-15.3c0.8-0.3,1.8-0.6,2.8-0.8c1.1-0.3,2.3-0.4,3.6-0.4c0.5,0,1.1,0,1.7,0.1
		c0.6,0.1,1.2,0.2,1.7,0.4L576.5,115.8L576.5,115.8z M303.8,106.5c1.3,0,2.5,0.1,3.6,0.4s2,0.7,2.8,1.2s1.5,1.2,2,1.9
		c0.5,0.8,0.8,1.6,1,2.6c0.2,1.5,0.1,2.8-0.3,3.9s-1.1,1.9-2.1,2.6c-0.9,0.7-2.1,1.1-3.5,1.4s-2.9,0.4-4.5,0.4h-1.2L301,128h-4.8
		l1.7-21c1.1-0.2,2.1-0.3,3.1-0.4S302.9,106.5,303.8,106.5L303.8,106.5z M304,110.5c-0.3,0-0.6,0-0.9,0c-0.2,0-0.5,0-0.7,0.1
		l-0.5,6.3h1.2c0.9,0,1.6-0.1,2.3-0.2c0.7-0.1,1.3-0.4,1.7-0.7c0.5-0.3,0.8-0.7,1-1.2s0.2-1.1,0.1-1.8c-0.1-0.9-0.6-1.6-1.3-2
		C306.2,110.7,305.2,110.5,304,110.5z"/>
	<path class="st0" d="M464.4,106.5c1.3,0,2.5,0.1,3.6,0.4s2,0.7,2.8,1.2s1.5,1.2,2,1.9c0.5,0.8,0.8,1.6,1,2.6
		c0.2,1.5,0.1,2.8-0.3,3.9s-1.1,1.9-2.1,2.6c-0.9,0.7-2.1,1.1-3.5,1.4s-2.9,0.4-4.5,0.4h-1.2l-0.6,7.1h-4.8l1.7-21
		c1.1-0.2,2.1-0.3,3.1-0.4S463.5,106.5,464.4,106.5L464.4,106.5z M464.7,110.5c-0.3,0-0.6,0-0.9,0c-0.2,0-0.5,0-0.7,0.1l-0.5,6.3
		h1.2c0.9,0,1.6-0.1,2.3-0.2c0.7-0.1,1.3-0.4,1.7-0.7c0.5-0.3,0.8-0.7,1-1.2s0.2-1.1,0.1-1.8c-0.1-0.9-0.6-1.6-1.3-2
		C466.9,110.7,465.9,110.5,464.7,110.5z"/>
</g>
</svg>
