<?xml version="1.0" encoding="utf-8"?>
<!-- Generator: Adobe Illustrator 22.1.0, SVG Export Plug-In . SVG Version: 6.00 Build 0)  -->
<svg version="1.1" id="Layer_1" xmlns="http://www.w3.org/2000/svg" xmlns:xlink="http://www.w3.org/1999/xlink" x="0px" y="0px"
	 viewBox="0 0 12 11" style="enable-background:new 0 0 12 11;" xml:space="preserve">
<style type="text/css">
	.st0{fill:#6A8FC2;}
</style>
<g>
	<path class="st0" d="M0.3,7.8c0.3,0,0.6,0,0.9,0C2,9.5,3.6,10.7,5.4,11c1.9,0.1,3.8-0.8,4.9-2.3C10.8,8,9.7,7.2,9.1,8
		C7.6,10.3,4.2,10,2.8,7.8c0.3,0,0.6,0,0.9,0l0.1-0.1c0-0.1,0-0.1,0-0.3c-0.5-0.9-1-1.7-1.7-2.6C2,4.7,1.9,4.7,1.7,4.7
		C1.2,5.6,0.6,6.5,0.1,7.4C-0.1,7.7,0.1,7.8,0.3,7.8z"/>
	<path class="st0" d="M2.6,3.2C4.2,0.8,7.6,1.1,9,3.3c-0.3,0-0.4,0-0.6,0L8.2,3.4c0,0.1,0,0.1,0,0.3c0.5,0.8,1.2,1.7,1.7,2.6
		c0.1,0.1,0.3,0.1,0.4,0c0.5-0.9,1.2-1.8,1.7-2.7c0-0.1-0.1-0.4-0.3-0.4c-0.4,0-0.8,0-1.2,0C9.8,1.5,8.4,0.2,6.4,0
		C4.5-0.2,2.6,0.7,1.5,2.3C1,3,2.1,3.7,2.6,3.2z"/>
</g>
</svg>
