<svg xmlns="http://www.w3.org/2000/svg" viewBox="0 0 163.58 65.74"><defs><style>.cls-1{fill:#fff;}.cls-2{fill:#b92a23;}.cls-2,.cls-3,.cls-4,.cls-5{fill-rule:evenodd;}.cls-3{fill:#e27a7e;}.cls-4{fill:#982318;}.cls-5{fill:#4973b1;}</style></defs><title>Asset 111</title><g id="Layer_2" data-name="Layer 2"><g id="Layer_1-2" data-name="Layer 1"><rect class="cls-1" width="163.58" height="65.74"/><polygon class="cls-2" points="46.16 40.27 50.86 34.45 41.49 34.45 40.21 32.85 41.43 31.33 51.12 31.33 46.14 25.49 47.87 23.33 55.5 32.85 47.87 42.41 46.16 40.27"/><polygon class="cls-3" points="24.11 31.42 37.82 31.42 46.07 20.99 32.35 20.99 24.11 31.42"/><polygon class="cls-4" points="24.11 34.33 37.82 34.33 46.07 44.76 32.35 44.76 24.11 34.33"/><path class="cls-5" d="M72.54,29.21c0,.1,0,.2,0,.29s0,.19,0,.29l-.75,9.47H69.07l-.33-1.08a8,8,0,0,1-1.57.92,4.2,4.2,0,0,1-1.75.41h-.67a3.49,3.49,0,0,1-.81-.11A3.18,3.18,0,0,1,63,39a2.8,2.8,0,0,1-.84-.87,3.06,3.06,0,0,1-.43-1.44c0-.14,0-.28,0-.43s0-.34,0-.58l.07-.75a10,10,0,0,1,.15-1,2.8,2.8,0,0,1,.53-1.12,3.2,3.2,0,0,1,1.23-.88,5.37,5.37,0,0,1,2.21-.37h3l0-.63a2,2,0,0,0,0-.23v-.19a.35.35,0,0,0-.17-.31.64.64,0,0,0-.31-.09h-4.6l.22-2.91h6a2.36,2.36,0,0,1,1.81.6,2.42,2.42,0,0,1,.62,1.48ZM65.65,33.9a.52.52,0,0,0-.34.12.55.55,0,0,0-.19.35l-.12,1a2.32,2.32,0,0,0,0,.45,1,1,0,0,0,.2.49.74.74,0,0,0,.67.27,5.83,5.83,0,0,0,1.34-.18A6.79,6.79,0,0,0,68.52,36l.14-2.08Zm20.22-3.69a7.49,7.49,0,0,1,0,1.06l-.3,3.86a5,5,0,0,1-1.15,3,3.65,3.65,0,0,1-2.9,1.13H77.37l-.28,3.39H73.51l1.24-15.52h2.9L78,28l1-.39c.38-.14.78-.26,1.2-.37s.84-.2,1.25-.28a7.1,7.1,0,0,1,1.18-.11,3.13,3.13,0,0,1,1.29.26,3,3,0,0,1,1,.72,3.34,3.34,0,0,1,.66,1.05,4.57,4.57,0,0,1,.3,1.3Zm-3.55,1a1.07,1.07,0,0,0-.26-.69,1.06,1.06,0,0,0-.84-.27c-.13,0-.34,0-.62,0l-.87.13-.93.16-.75.16-.43,5.34h3.87a.46.46,0,0,0,.51-.47l.29-3.84q0-.12,0-.3a1.19,1.19,0,0,0,0-.27Zm8.53,8H87.17l1-12.13h3.67l-1,12.13ZM92,25.68H88.16l.18-2.21H92.2L92,25.68Zm8.8,4.61h-.47a7.65,7.65,0,0,0-1.73.2c-.57.13-1,.27-1.43.4l-.66,8.37h-3.7l1-12.13h3l.32,1c.25-.13.54-.27.87-.41s.66-.28,1-.4a9.93,9.93,0,0,1,1.06-.32,4.47,4.47,0,0,1,1-.12l-.26,3.41Zm12.71,4.84a5,5,0,0,1-1.12,3,3.55,3.55,0,0,1-2.88,1.15h-4.87a2.79,2.79,0,0,1-2-.71,3,3,0,0,1-.83-2,2.94,2.94,0,0,1,0-.42c0-.12,0-.35,0-.69l.3-4.18a6.2,6.2,0,0,1,.33-1.65,3.76,3.76,0,0,1,.79-1.31,3.6,3.6,0,0,1,1.25-.87,4.45,4.45,0,0,1,1.75-.31h4.85a2.38,2.38,0,0,1,2,.84,3.67,3.67,0,0,1,.79,2.12c0,.11,0,.25,0,.4a2.77,2.77,0,0,1,0,.42l-.32,4.22Zm-3.19-4.06a.69.69,0,0,0-.28-.54.91.91,0,0,0-.59-.19h-3.3a.44.44,0,0,0-.48.47l-.28,3.79c0,.08,0,.18,0,.29a1.12,1.12,0,0,0,0,.26.76.76,0,0,0,.23.53.94.94,0,0,0,.64.2h3.27a.46.46,0,0,0,.51-.48l.29-3.93a2.32,2.32,0,0,0,0-.24v-.16Zm16.91-1.18c0,.2,0,.41,0,.64s0,.47,0,.74l-.62,8H123l.56-7.22a6.1,6.1,0,0,0,0-.7c-.06-.72-.4-1.08-1-1.08a8.67,8.67,0,0,0-1.52.17c-.6.1-1.13.22-1.6.33l-.71,8.5h-3.57l1-12.13H119l.34.9c.35-.15.73-.29,1.14-.44a12.45,12.45,0,0,1,1.23-.36c.41-.1.81-.18,1.2-.25a5.88,5.88,0,0,1,1-.1,7.22,7.22,0,0,1,1,.07,2.49,2.49,0,0,1,1,.38,2.4,2.4,0,0,1,.82.9,4.09,4.09,0,0,1,.43,1.66Zm12.19,0a2.91,2.91,0,0,1,0,.42c0,.14,0,.26,0,.36l-.1,1a2.43,2.43,0,0,1-.93,1.69,4.5,4.5,0,0,1-2,.86,6.78,6.78,0,0,1-.91.13l-1.17.09-1.14.06c-.35,0-.61,0-.78,0l0,.53a2.36,2.36,0,0,0,0,.25l0,.15a1,1,0,0,0,.25.63,1.1,1.1,0,0,0,.85.27c.41,0,.87,0,1.39-.06l1.56-.15q.8-.09,1.53-.21c.48-.09.91-.18,1.28-.28L139,38.33a9.1,9.1,0,0,1-1.26.44c-.49.15-1,.27-1.56.38s-1.11.2-1.66.26a12.08,12.08,0,0,1-1.52.1,11.28,11.28,0,0,1-1.19-.07A3.78,3.78,0,0,1,130.5,39a3.2,3.2,0,0,1-1.13-1,3.48,3.48,0,0,1-.57-1.83,4.18,4.18,0,0,1,0-.51c0-.17,0-.36,0-.56l.3-3.86a5.69,5.69,0,0,1,.33-1.57,4,4,0,0,1,.77-1.32,3.59,3.59,0,0,1,1.27-.91,4.5,4.5,0,0,1,1.85-.34h2.56a4.51,4.51,0,0,1,1.79.3,3.06,3.06,0,0,1,1.06.73,2.35,2.35,0,0,1,.54.9,3.86,3.86,0,0,1,.17.85ZM133.8,30a1.34,1.34,0,0,0-.68.21,1,1,0,0,0-.41.77l-.14,1.32h.56c.28,0,.58,0,.9,0l.9-.07a5.76,5.76,0,0,0,.63-.09,1.5,1.5,0,0,0,.66-.3,1.06,1.06,0,0,0,.22-.35,1.33,1.33,0,0,0,.07-.3c0-.14,0-.25,0-.33a.81.81,0,0,0-.9-.8Z"/></g></g></svg>